<mxfile host="65bd71144e">
    <diagram id="rt6Tdz95BrOZuxgoKf_s" name="setup">
        <mxGraphModel dx="1222" dy="971" grid="1" gridSize="10" guides="1" tooltips="1" connect="1" arrows="1" fold="1" page="1" pageScale="1" pageWidth="1100" pageHeight="850" math="0" shadow="0">
            <root>
                <mxCell id="0"/>
                <mxCell id="3" value="Main" style="" parent="0"/>
                <mxCell id="i5wnqa3JsmT6wZ31SYDz-39" style="edgeStyle=none;html=1;exitX=0.5;exitY=1;exitDx=0;exitDy=0;endArrow=block;endFill=1;startArrow=none;" parent="3" source="i5wnqa3JsmT6wZ31SYDz-35" edge="1">
                    <mxGeometry relative="1" as="geometry">
                        <mxPoint x="280" y="600" as="targetPoint"/>
                        <mxPoint x="310" y="60" as="sourcePoint"/>
                    </mxGeometry>
                </mxCell>
                <mxCell id="9" style="edgeStyle=none;html=1;exitX=0.5;exitY=1;exitDx=0;exitDy=0;endArrow=block;endFill=1;" parent="3" source="5" edge="1">
                    <mxGeometry relative="1" as="geometry">
                        <mxPoint x="80" y="600" as="targetPoint"/>
                        <mxPoint x="80" y="210" as="sourcePoint"/>
                    </mxGeometry>
                </mxCell>
                <mxCell id="5" value="HTML" style="rounded=0;whiteSpace=wrap;html=1;" parent="3" vertex="1">
                    <mxGeometry width="160" height="40" as="geometry"/>
                </mxCell>
                <mxCell id="6" value="KaiztenDataManager" style="rounded=0;whiteSpace=wrap;html=1;" parent="3" vertex="1">
                    <mxGeometry x="200" width="160" height="40" as="geometry"/>
                </mxCell>
                <mxCell id="11" style="edgeStyle=none;html=1;exitX=0.5;exitY=1;exitDx=0;exitDy=0;endArrow=block;endFill=1;" parent="3" source="7" edge="1">
                    <mxGeometry relative="1" as="geometry">
                        <mxPoint x="480" y="600" as="targetPoint"/>
                    </mxGeometry>
                </mxCell>
                <mxCell id="7" value="Websockets" style="rounded=0;whiteSpace=wrap;html=1;" parent="3" vertex="1">
                    <mxGeometry x="400" width="160" height="40" as="geometry"/>
                </mxCell>
                <mxCell id="12" style="edgeStyle=none;html=1;exitX=0.5;exitY=1;exitDx=0;exitDy=0;endArrow=block;endFill=1;" parent="3" source="8" edge="1">
                    <mxGeometry relative="1" as="geometry">
                        <mxPoint x="1080" y="600" as="targetPoint"/>
                    </mxGeometry>
                </mxCell>
                <mxCell id="8" value="App" style="rounded=0;whiteSpace=wrap;html=1;" parent="3" vertex="1">
                    <mxGeometry x="1000" width="160" height="40" as="geometry"/>
                </mxCell>
                <mxCell id="13" value="" style="endArrow=block;html=1;endFill=1;dashed=1;" parent="3" edge="1">
                    <mxGeometry width="50" height="50" relative="1" as="geometry">
                        <mxPoint x="280" y="80" as="sourcePoint"/>
                        <mxPoint x="80" y="80" as="targetPoint"/>
                    </mxGeometry>
                </mxCell>
                <mxCell id="14" value="not ready" style="text;html=1;strokeColor=none;fillColor=none;align=center;verticalAlign=middle;whiteSpace=wrap;rounded=0;" parent="3" vertex="1">
                    <mxGeometry x="80" y="50" width="200" height="20" as="geometry"/>
                </mxCell>
                <mxCell id="15" value="" style="endArrow=block;html=1;endFill=1;" parent="3" edge="1">
                    <mxGeometry width="50" height="50" relative="1" as="geometry">
                        <mxPoint x="80" y="120" as="sourcePoint"/>
                        <mxPoint x="280" y="120" as="targetPoint"/>
                    </mxGeometry>
                </mxCell>
                <mxCell id="16" value="setUp" style="text;html=1;strokeColor=none;fillColor=none;align=center;verticalAlign=middle;whiteSpace=wrap;rounded=0;" parent="3" vertex="1">
                    <mxGeometry x="80" y="90" width="200" height="20" as="geometry"/>
                </mxCell>
                <mxCell id="17" value="setUp" style="text;html=1;strokeColor=none;fillColor=none;align=center;verticalAlign=middle;whiteSpace=wrap;rounded=0;" parent="3" vertex="1">
                    <mxGeometry x="280" y="130" width="200" height="20" as="geometry"/>
                </mxCell>
                <mxCell id="18" value="" style="endArrow=block;html=1;endFill=1;" parent="3" edge="1">
                    <mxGeometry width="50" height="50" relative="1" as="geometry">
                        <mxPoint x="280" y="160" as="sourcePoint"/>
                        <mxPoint x="480" y="160" as="targetPoint"/>
                    </mxGeometry>
                </mxCell>
                <mxCell id="19" value="" style="endArrow=block;html=1;endFill=1;" parent="3" edge="1">
                    <mxGeometry width="50" height="50" relative="1" as="geometry">
                        <mxPoint x="280" y="200" as="sourcePoint"/>
                        <mxPoint x="680" y="200" as="targetPoint"/>
                    </mxGeometry>
                </mxCell>
                <mxCell id="20" value="" style="endArrow=block;html=1;endFill=1;" parent="3" edge="1">
                    <mxGeometry width="50" height="50" relative="1" as="geometry">
                        <mxPoint x="280" y="320" as="sourcePoint"/>
                        <mxPoint x="480" y="320" as="targetPoint"/>
                    </mxGeometry>
                </mxCell>
                <mxCell id="22" value="" style="endArrow=block;html=1;endFill=1;dashed=1;exitX=0.5;exitY=1;exitDx=0;exitDy=0;" parent="3" source="i5wnqa3JsmT6wZ31SYDz-33" edge="1">
                    <mxGeometry width="50" height="50" relative="1" as="geometry">
                        <mxPoint x="260" y="320" as="sourcePoint"/>
                        <mxPoint x="80" y="440" as="targetPoint"/>
                    </mxGeometry>
                </mxCell>
                <mxCell id="24" value="setUp" style="text;html=1;strokeColor=none;fillColor=none;align=center;verticalAlign=middle;whiteSpace=wrap;rounded=0;" parent="3" vertex="1">
                    <mxGeometry x="280" y="170" width="400" height="20" as="geometry"/>
                </mxCell>
                <mxCell id="26" value="initialize" style="text;html=1;strokeColor=none;fillColor=none;align=center;verticalAlign=middle;whiteSpace=wrap;rounded=0;" parent="3" vertex="1">
                    <mxGeometry x="280" y="290" width="200" height="20" as="geometry"/>
                </mxCell>
                <mxCell id="27" value="ready" style="text;html=1;strokeColor=none;fillColor=none;align=center;verticalAlign=middle;whiteSpace=wrap;rounded=0;" parent="3" vertex="1">
                    <mxGeometry x="80" y="410" width="210" height="20" as="geometry"/>
                </mxCell>
                <mxCell id="28" value="" style="endArrow=block;html=1;entryX=0;entryY=0;entryDx=0;entryDy=0;endFill=1;" parent="3" target="i5wnqa3JsmT6wZ31SYDz-35" edge="1">
                    <mxGeometry width="50" height="50" relative="1" as="geometry">
                        <mxPoint x="80" y="480" as="sourcePoint"/>
                        <mxPoint x="260" y="360" as="targetPoint"/>
                    </mxGeometry>
                </mxCell>
                <mxCell id="29" value="connect" style="text;html=1;strokeColor=none;fillColor=none;align=center;verticalAlign=middle;whiteSpace=wrap;rounded=0;" parent="3" vertex="1">
                    <mxGeometry x="80" y="450" width="200" height="20" as="geometry"/>
                </mxCell>
                <mxCell id="30" value="connect" style="text;html=1;strokeColor=none;fillColor=none;align=center;verticalAlign=middle;whiteSpace=wrap;rounded=0;" parent="3" vertex="1">
                    <mxGeometry x="280" y="490" width="200" height="20" as="geometry"/>
                </mxCell>
                <mxCell id="31" value="" style="endArrow=block;html=1;endFill=1;exitX=1;exitY=0.5;exitDx=0;exitDy=0;" parent="3" source="i5wnqa3JsmT6wZ31SYDz-35" edge="1">
                    <mxGeometry width="50" height="50" relative="1" as="geometry">
                        <mxPoint x="260" y="400" as="sourcePoint"/>
                        <mxPoint x="480" y="520" as="targetPoint"/>
                    </mxGeometry>
                </mxCell>
                <mxCell id="32" value="" style="endArrow=block;html=1;endFill=1;exitX=0;exitY=1;exitDx=0;exitDy=0;" parent="3" source="i5wnqa3JsmT6wZ31SYDz-35" edge="1">
                    <mxGeometry width="50" height="50" relative="1" as="geometry">
                        <mxPoint x="260" y="440" as="sourcePoint"/>
                        <mxPoint x="80" y="560" as="targetPoint"/>
                    </mxGeometry>
                </mxCell>
                <mxCell id="33" value="connected" style="text;html=1;strokeColor=none;fillColor=none;align=center;verticalAlign=middle;whiteSpace=wrap;rounded=0;" parent="3" vertex="1">
                    <mxGeometry x="80" y="530" width="200" height="20" as="geometry"/>
                </mxCell>
                <mxCell id="mGbY77DgkwV4lNJN_6jF-33" style="edgeStyle=none;html=1;exitX=0.5;exitY=1;exitDx=0;exitDy=0;endArrow=block;endFill=1;" parent="3" source="mGbY77DgkwV4lNJN_6jF-34" edge="1">
                    <mxGeometry relative="1" as="geometry">
                        <mxPoint x="680" y="600" as="targetPoint"/>
                    </mxGeometry>
                </mxCell>
                <mxCell id="mGbY77DgkwV4lNJN_6jF-34" value="KaiztenMemory" style="rounded=0;whiteSpace=wrap;html=1;" parent="3" vertex="1">
                    <mxGeometry x="600" width="160" height="40" as="geometry"/>
                </mxCell>
                <mxCell id="mGbY77DgkwV4lNJN_6jF-35" style="edgeStyle=none;html=1;exitX=0.5;exitY=1;exitDx=0;exitDy=0;endArrow=block;endFill=1;" parent="3" source="mGbY77DgkwV4lNJN_6jF-36" edge="1">
                    <mxGeometry relative="1" as="geometry">
                        <mxPoint x="880" y="600" as="targetPoint"/>
                    </mxGeometry>
                </mxCell>
                <mxCell id="mGbY77DgkwV4lNJN_6jF-36" value="KaiztenGsap" style="rounded=0;whiteSpace=wrap;html=1;" parent="3" vertex="1">
                    <mxGeometry x="800" width="160" height="40" as="geometry"/>
                </mxCell>
                <mxCell id="mGbY77DgkwV4lNJN_6jF-37" value="" style="endArrow=block;html=1;endFill=1;" parent="3" edge="1">
                    <mxGeometry width="50" height="50" relative="1" as="geometry">
                        <mxPoint x="280" y="240" as="sourcePoint"/>
                        <mxPoint x="879.6" y="240.24" as="targetPoint"/>
                    </mxGeometry>
                </mxCell>
                <mxCell id="mGbY77DgkwV4lNJN_6jF-38" value="" style="edgeStyle=none;html=1;exitX=0.5;exitY=1;exitDx=0;exitDy=0;endArrow=none;endFill=1;" parent="3" source="6" target="i5wnqa3JsmT6wZ31SYDz-35" edge="1">
                    <mxGeometry relative="1" as="geometry">
                        <mxPoint x="280" y="720" as="targetPoint"/>
                        <mxPoint x="280" y="40" as="sourcePoint"/>
                    </mxGeometry>
                </mxCell>
                <mxCell id="i5wnqa3JsmT6wZ31SYDz-35" value="" style="rounded=0;whiteSpace=wrap;html=1;" parent="3" vertex="1">
                    <mxGeometry x="270" y="480" width="20" height="80" as="geometry"/>
                </mxCell>
                <mxCell id="mGbY77DgkwV4lNJN_6jF-39" value="setUp" style="text;html=1;strokeColor=none;fillColor=none;align=center;verticalAlign=middle;whiteSpace=wrap;rounded=0;" parent="3" vertex="1">
                    <mxGeometry x="280" y="210" width="600" height="20" as="geometry"/>
                </mxCell>
                <mxCell id="mGbY77DgkwV4lNJN_6jF-40" value="" style="endArrow=block;html=1;endFill=1;" parent="3" edge="1">
                    <mxGeometry width="50" height="50" relative="1" as="geometry">
                        <mxPoint x="280" y="280" as="sourcePoint"/>
                        <mxPoint x="1080" y="280" as="targetPoint"/>
                    </mxGeometry>
                </mxCell>
                <mxCell id="mGbY77DgkwV4lNJN_6jF-41" value="setUp" style="text;html=1;strokeColor=none;fillColor=none;align=center;verticalAlign=middle;whiteSpace=wrap;rounded=0;" parent="3" vertex="1">
                    <mxGeometry x="280" y="250" width="800" height="20" as="geometry"/>
                </mxCell>
                <mxCell id="mGbY77DgkwV4lNJN_6jF-42" value="" style="endArrow=block;html=1;endFill=1;" parent="3" edge="1">
                    <mxGeometry width="50" height="50" relative="1" as="geometry">
                        <mxPoint x="280" y="360" as="sourcePoint"/>
                        <mxPoint x="680" y="360" as="targetPoint"/>
                    </mxGeometry>
                </mxCell>
                <mxCell id="mGbY77DgkwV4lNJN_6jF-43" value="initialize" style="text;html=1;strokeColor=none;fillColor=none;align=center;verticalAlign=middle;whiteSpace=wrap;rounded=0;" parent="3" vertex="1">
                    <mxGeometry x="280" y="330" width="400" height="20" as="geometry"/>
                </mxCell>
                <mxCell id="mGbY77DgkwV4lNJN_6jF-44" value="" style="endArrow=block;html=1;endFill=1;" parent="3" edge="1">
                    <mxGeometry width="50" height="50" relative="1" as="geometry">
                        <mxPoint x="280" y="400" as="sourcePoint"/>
                        <mxPoint x="879.5999999999999" y="400.24" as="targetPoint"/>
                    </mxGeometry>
                </mxCell>
                <mxCell id="mGbY77DgkwV4lNJN_6jF-45" value="initialize" style="text;html=1;strokeColor=none;fillColor=none;align=center;verticalAlign=middle;whiteSpace=wrap;rounded=0;" parent="3" vertex="1">
                    <mxGeometry x="280" y="370" width="600" height="20" as="geometry"/>
                </mxCell>
                <mxCell id="mGbY77DgkwV4lNJN_6jF-46" value="" style="endArrow=block;html=1;endFill=1;" parent="3" edge="1">
                    <mxGeometry width="50" height="50" relative="1" as="geometry">
                        <mxPoint x="280" y="440" as="sourcePoint"/>
                        <mxPoint x="1080" y="440" as="targetPoint"/>
                    </mxGeometry>
                </mxCell>
                <mxCell id="mGbY77DgkwV4lNJN_6jF-47" value="initialize" style="text;html=1;strokeColor=none;fillColor=none;align=center;verticalAlign=middle;whiteSpace=wrap;rounded=0;" parent="3" vertex="1">
                    <mxGeometry x="280" y="410" width="800" height="20" as="geometry"/>
                </mxCell>
                <mxCell id="i5wnqa3JsmT6wZ31SYDz-33" value="" style="rounded=0;whiteSpace=wrap;html=1;" parent="3" vertex="1">
                    <mxGeometry x="270" y="140" width="20" height="300" as="geometry"/>
                </mxCell>
            </root>
        </mxGraphModel>
    </diagram>
</mxfile>